<svg viewBox="0 0 1240 310" xmlns="http://www.w3.org/2000/svg" role="img" font-family="Arial, sans-serif" aria-label="Live syringe assembly cell"><defs><marker id="arrow" markerWidth="8" markerHeight="8" refX="6" refY="3" orient="auto"><path d="M0,0 L6,3 L0,6" fill="#3C5678"/></marker></defs><rect width="1240" height="310" rx="16" fill="#111E32"/><path d="M1135 218 V278 H89 V218" fill="none" stroke="#294465" stroke-width="3" stroke-dasharray="8 5" marker-end="url(#arrow)"/><text x="610" y="299" fill="#94A3B8" font-size="12" text-anchor="middle">EMPTY PALLET RETURN · 10 s</text><g><title>IN: SYR-B07-000025. B1 full</title><rect x="18" y="68" width="169" height="150" rx="12" fill="#14263F" stroke="#FBBF24" stroke-width="2"/><text x="33" y="96" fill="#F1F5F9" font-size="18" font-weight="700">IN</text><circle cx="167" cy="91" r="5" fill="#FBBF24"/><text x="33" y="119" fill="#B7C7DB" font-size="12">Material input</text><text x="33" y="147" fill="#FBBF24" font-size="12" font-weight="700">BLOCKED</text><text x="33" y="172" fill="#E2E8F0" font-size="12">RELEASE</text><text x="33" y="200" fill="#94A3B8" font-size="10">SYR-B07-000025</text></g><path d="M188 144 H219" stroke="#3C5678" stroke-width="3" marker-end="url(#arrow)"/><text x="206" y="38" fill="#A9BBD0" font-size="11" text-anchor="middle">B1</text><text x="206" y="56" fill="#38BDF8" font-size="11" text-anchor="middle">2+0/2</text><g><title>S1: SYR-B07-000022. </title><rect x="225" y="68" width="169" height="150" rx="12" fill="#14263F" stroke="#34D399" stroke-width="2"/><text x="240" y="96" fill="#F1F5F9" font-size="18" font-weight="700">S1</text><circle cx="374" cy="91" r="5" fill="#34D399"/><text x="240" y="119" fill="#B7C7DB" font-size="12">Print &amp; cure</text><text x="240" y="147" fill="#34D399" font-size="12" font-weight="700">RUNNING</text><text x="240" y="172" fill="#E2E8F0" font-size="12">CURE</text><text x="240" y="200" fill="#94A3B8" font-size="10">SYR-B07-000022</text></g><path d="M395 144 H426" stroke="#3C5678" stroke-width="3" marker-end="url(#arrow)"/><text x="413" y="38" fill="#A9BBD0" font-size="11" text-anchor="middle">B2</text><text x="413" y="56" fill="#38BDF8" font-size="11" text-anchor="middle">2+0/2</text><g><title>S2: SYR-B07-000019. </title><rect x="432" y="68" width="169" height="150" rx="12" fill="#14263F" stroke="#34D399" stroke-width="2"/><text x="447" y="96" fill="#F1F5F9" font-size="18" font-weight="700">S2</text><circle cx="581" cy="91" r="5" fill="#34D399"/><text x="447" y="119" fill="#B7C7DB" font-size="12">Press &amp; insert</text><text x="447" y="147" fill="#34D399" font-size="12" font-weight="700">RUNNING</text><text x="447" y="172" fill="#E2E8F0" font-size="12">INSERT</text><text x="447" y="200" fill="#94A3B8" font-size="10">SYR-B07-000019</text></g><path d="M602 144 H633" stroke="#3C5678" stroke-width="3" marker-end="url(#arrow)"/><text x="620" y="38" fill="#A9BBD0" font-size="11" text-anchor="middle">B3</text><text x="620" y="56" fill="#38BDF8" font-size="11" text-anchor="middle">0+0/2</text><g><title>S3: SYR-B07-000018. </title><rect x="639" y="68" width="169" height="150" rx="12" fill="#14263F" stroke="#34D399" stroke-width="2"/><text x="654" y="96" fill="#F1F5F9" font-size="18" font-weight="700">S3</text><circle cx="788" cy="91" r="5" fill="#34D399"/><text x="654" y="119" fill="#B7C7DB" font-size="12">Cap &amp; mark</text><text x="654" y="147" fill="#34D399" font-size="12" font-weight="700">RUNNING</text><text x="654" y="172" fill="#E2E8F0" font-size="12">CAP_PRESS</text><text x="654" y="200" fill="#94A3B8" font-size="10">SYR-B07-000018</text></g><path d="M809 144 H840" stroke="#3C5678" stroke-width="3" marker-end="url(#arrow)"/><text x="827" y="38" fill="#A9BBD0" font-size="11" text-anchor="middle">B4</text><text x="827" y="56" fill="#38BDF8" font-size="11" text-anchor="middle">0+0/2</text><g><title>S4: SYR-B07-000017. </title><rect x="846" y="68" width="169" height="150" rx="12" fill="#14263F" stroke="#34D399" stroke-width="2"/><text x="861" y="96" fill="#F1F5F9" font-size="18" font-weight="700">S4</text><circle cx="995" cy="91" r="5" fill="#34D399"/><text x="861" y="119" fill="#B7C7DB" font-size="12">Inspection</text><text x="861" y="147" fill="#34D399" font-size="12" font-weight="700">RUNNING</text><text x="861" y="172" fill="#E2E8F0" font-size="12">LEAK</text><text x="861" y="200" fill="#94A3B8" font-size="10">SYR-B07-000017</text></g><path d="M1016 144 H1047" stroke="#3C5678" stroke-width="3" marker-end="url(#arrow)"/><g><title>OUT: No part. waiting for pallet</title><rect x="1053" y="68" width="169" height="150" rx="12" fill="#14263F" stroke="#94A3B8" stroke-width="2"/><text x="1068" y="96" fill="#F1F5F9" font-size="18" font-weight="700">OUT</text><circle cx="1202" cy="91" r="5" fill="#94A3B8"/><text x="1068" y="119" fill="#B7C7DB" font-size="12">Pack &amp; unload</text><text x="1068" y="147" fill="#94A3B8" font-size="12" font-weight="700">STARVED</text><text x="1068" y="172" fill="#E2E8F0" font-size="12">WAIT</text><text x="1068" y="200" fill="#94A3B8" font-size="10">No part</text></g><path d="M931 218 V246" stroke="#FB7185" stroke-width="2"/><text x="931" y="262" fill="#FB7185" font-size="12" text-anchor="middle">REJECT BIN · 1</text><text x="24" y="28" fill="#7D93AF" font-size="12">10 PALLETS · 1 IN TRANSIT · 0 AVAILABLE AT IN</text></svg>